<svg width="352" height="498" viewBox="0 0 352 498" fill="none" xmlns="http://www.w3.org/2000/svg">
	<path d="M187.115 5.2712C185.742 3.66776 184.038 2.38054 182.121 1.49798C180.203 0.615425 178.117 0.158447 176.006 0.158447C173.895 0.158447 171.809 0.615425 169.892 1.49798C167.974 2.38054 166.27 3.66776 164.897 5.2712C126.312 50.4015 0.5 206.426 0.5 322C0.5 429.701 68.3112 497.5 176 497.5C283.689 497.5 351.5 429.701 351.5 322C351.5 206.426 225.688 50.4015 187.115 5.2712ZM195.5 434.125C193.158 434.13 190.848 433.573 188.766 432.499C186.684 431.426 184.89 429.868 183.536 427.957C182.181 426.046 181.306 423.837 180.983 421.517C180.66 419.197 180.899 416.833 181.679 414.625C182.677 411.743 184.558 409.25 187.054 407.499C189.551 405.749 192.536 404.83 195.585 404.875C214.944 404.833 233.497 397.124 247.186 383.436C260.874 369.747 268.583 351.194 268.625 331.835C268.58 328.786 269.499 325.801 271.249 323.304C273 320.808 275.493 318.927 278.375 317.929C280.583 317.149 282.947 316.91 285.267 317.233C287.587 317.556 289.796 318.431 291.707 319.786C293.618 321.14 295.176 322.934 296.249 325.016C297.323 327.098 297.88 329.408 297.875 331.75C297.846 358.893 287.051 384.915 267.858 404.108C248.665 423.301 222.643 434.096 195.5 434.125Z" fill="white" />
</svg>
