<?xml version="1.0" encoding="utf-8"?>
<svg xmlns="http://www.w3.org/2000/svg" viewBox="9.837 47.698 92.52 92.5" width="92.52px" height="92.5px">
	<path class="st0" d="M 91.392 93.953 L 100.862 84.483 C 102.842 82.503 102.842 79.283 100.862 77.303 L 72.742 49.183 C 70.762 47.203 67.542 47.203 65.562 49.183 L 56.092 58.653 L 46.622 49.183 C 44.642 47.203 41.422 47.203 39.442 49.183 L 11.332 77.303 C 9.352 79.283 9.352 82.503 11.332 84.483 L 20.802 93.953 L 11.332 103.423 C 9.352 105.403 9.352 108.623 11.332 110.603 L 39.452 138.713 C 41.432 140.693 44.652 140.693 46.632 138.713 L 56.102 129.243 L 65.572 138.713 C 67.552 140.693 70.772 140.693 72.752 138.713 L 100.872 110.593 C 102.852 108.613 102.852 105.393 100.872 103.413 L 91.392 93.953 Z" style="fill: rgb(159, 204, 59); stroke-width: 1;" />
	<path class="st1" d="M 45.372 118.523 C 44.122 117.273 43.612 115.463 44.022 113.753 L 46.472 103.573 L 36.292 106.023 C 34.572 106.433 32.762 105.923 31.522 104.673 L 20.792 93.953 L 11.322 103.423 C 9.342 105.403 9.342 108.623 11.322 110.603 L 39.452 138.713 C 41.432 140.693 44.652 140.693 46.632 138.713 L 56.102 129.243 L 45.372 118.523 Z" style="fill: rgb(4, 165, 79); stroke-width: 1;" />
	<path class="st2" d="M 62.712 91.083 C 62.262 89.233 60.822 87.783 58.962 87.333 L 36.292 81.883 C 34.572 81.473 32.762 81.983 31.512 83.233 L 20.792 93.943 L 31.512 104.663 C 32.762 105.913 34.572 106.423 36.292 106.013 L 58.962 100.563 C 60.812 100.113 62.262 98.673 62.712 96.813 L 63.402 93.943 L 62.712 91.083 Z" style="fill: rgb(12, 147, 71); stroke-width: 1;" />
	<path class="st2" d="M 53.222 87.333 C 51.372 87.783 49.922 89.223 49.472 91.083 L 44.022 113.753 C 43.612 115.473 44.122 117.283 45.372 118.533 L 56.092 129.253 L 66.812 118.533 C 68.062 117.283 68.572 115.473 68.162 113.753 L 62.712 91.083 C 62.262 89.233 60.822 87.783 58.962 87.333 L 56.092 86.643 L 53.222 87.333 Z" style="fill: rgb(12, 147, 71); stroke-width: 1;" />
	<path class="st3" d="M 49.472 96.823 C 49.922 98.673 51.362 100.123 53.222 100.573 L 75.892 106.023 C 77.612 106.433 79.422 105.923 80.672 104.673 L 91.392 93.953 L 80.672 83.223 C 79.422 81.973 77.612 81.463 75.892 81.873 L 53.222 87.323 C 51.372 87.773 49.922 89.213 49.472 91.073 L 48.782 93.943 L 49.472 96.823 Z" style="fill: rgb(101, 188, 70); stroke-width: 1;" />
	<path class="st3" d="M 58.962 100.563 C 60.812 100.113 62.262 98.673 62.712 96.813 L 68.162 74.143 C 68.572 72.423 68.062 70.613 66.812 69.363 L 56.092 58.653 L 45.372 69.373 C 44.122 70.623 43.612 72.433 44.022 74.153 L 49.472 96.823 C 49.922 98.673 51.362 100.123 53.222 100.573 L 56.092 101.263 L 58.962 100.563 Z" style="fill: rgb(101, 188, 70); stroke-width: 1;" />
	<path class="st4" d="M 49.472 96.823 C 49.922 98.673 51.362 100.123 53.222 100.573 L 56.092 101.263 L 58.962 100.573 C 60.812 100.123 62.262 98.683 62.712 96.823 L 65.712 84.333 L 53.222 87.333 C 51.372 87.783 49.922 89.223 49.472 91.083 L 48.782 93.953 L 49.472 96.823 Z" style="fill: rgb(60, 174, 73); stroke-width: 1;" />
	<path class="st5" d="M 58.962 100.563 C 60.812 100.113 62.262 98.673 62.712 96.813 L 63.402 93.943 L 62.712 91.073 C 62.262 89.223 60.822 87.773 58.962 87.323 L 46.472 84.323 L 49.472 96.813 C 49.922 98.663 51.362 100.113 53.222 100.563 L 56.092 101.253 L 58.962 100.563 Z" style="fill: rgb(22, 130, 65); stroke-width: 1;" />
	<path class="st5" d="M 53.222 87.333 C 51.372 87.783 49.922 89.223 49.472 91.083 L 48.782 93.953 L 49.472 96.823 C 49.922 98.673 51.362 100.123 53.222 100.573 L 65.712 103.573 L 62.712 91.083 C 62.262 89.233 60.822 87.783 58.962 87.333 L 56.092 86.643 L 53.222 87.333 Z" style="fill: rgb(22, 130, 65); stroke-width: 1;" />
	<path class="st5" d="M 62.712 91.083 C 62.262 89.233 60.822 87.783 58.962 87.333 L 56.092 86.643 L 53.222 87.333 C 51.372 87.783 49.922 89.223 49.472 91.083 L 46.472 103.573 L 58.962 100.573 C 60.812 100.123 62.262 98.683 62.712 96.823 L 63.402 93.953 L 62.712 91.083 Z" style="fill: rgb(22, 130, 65); stroke-width: 1;" />
	<path class="st6" d="M 62.712 91.083 C 62.262 89.233 60.822 87.783 58.962 87.333 L 56.092 86.643 L 53.222 87.333 C 51.372 87.783 49.922 89.223 49.472 91.083 L 48.782 93.953 L 49.472 96.823 C 49.922 98.673 51.362 100.123 53.222 100.573 L 56.092 101.263 L 58.962 100.573 C 60.822 100.123 62.262 98.683 62.712 96.823 L 63.402 93.953 L 62.712 91.083 Z" style="fill: rgb(11, 118, 60); stroke-width: 1;" />
</svg>
