<?xml version="1.0" encoding="utf-8"?>
<svg xmlns="http://www.w3.org/2000/svg" viewBox="43.069 59.9109 20.068 19.1501" width="20.068px" height="19.1501px">
  <path fill="#010101" d="M 43.069 75.199 L 46.613 73.157 L 46.613 71.45 L 43.069 73.436 L 43.069 75.199 Z M 58.037 66.584 L 61.58 64.532 L 60.284 63.786 L 56.684 65.8 L 58.037 66.584 L 58.037 66.584 Z M 46.613 67.483 L 52.32 64.191 C 52.801 63.912 53.395 63.912 53.877 64.191 L 56.097 65.469 L 59.697 63.455 L 53.887 60.098 C 53.648 59.972 53.381 59.908 53.111 59.911 C 52.831 59.911 52.551 59.976 52.337 60.098 L 43.862 64.993 C 43.61 65.143 43.377 65.423 43.237 65.721 C 43.144 65.926 43.087 66.141 43.087 66.336 L 43.087 72.771 L 46.631 70.784 L 46.631 67.484 L 46.613 67.484 L 46.613 67.483 Z M 63.044 65.866 C 63.006 65.763 62.96 65.662 62.904 65.567 L 59.584 67.479 L 59.584 74.967 L 53.877 71.675 C 53.638 71.55 53.372 71.486 53.103 71.489 C 52.823 71.489 52.543 71.554 52.329 71.675 L 46.621 74.967 L 43.078 77.009 L 46.622 79.061 L 52.329 75.769 C 52.81 75.49 53.404 75.49 53.886 75.769 L 59.593 79.061 L 63.137 77.019 L 63.137 66.331 C 63.137 66.181 63.109 66.023 63.044 65.865 L 63.044 65.866 Z" style="stroke-width: 1;"/>
  <path fill="#3BBBCC" d="M 46.613 71.45 L 46.613 70.778 L 43.069 72.764 L 43.069 73.436 L 46.613 71.45 Z M 56.684 65.801 L 60.284 63.787 L 59.687 63.442 L 56.097 65.457 L 56.684 65.802 L 56.684 65.801 Z" style="stroke-width: 1;"/>
</svg>